  <svg xmlns="http://www.w3.org/2000/svg" viewBox="0 0 1600 980" font-family="-apple-system, Segoe UI, sans-serif">
  <defs>
    <marker id="arrow" markerWidth="8" markerHeight="6" refX="8" refY="3" orient="auto">
      <path d="M0,0 L8,3 L0,6 Z" fill="#555"/>
    </marker>
    <marker id="arrow-red" markerWidth="8" markerHeight="6" refX="8" refY="3" orient="auto">
      <path d="M0,0 L8,3 L0,6 Z" fill="#c0392b"/>
    </marker>
    <marker id="arrow-green" markerWidth="8" markerHeight="6" refX="8" refY="3" orient="auto">
      <path d="M0,0 L8,3 L0,6 Z" fill="#0b5e55"/>
    </marker>
    <filter id="shadow" x="-02" y="-02" width="1.4" height="1.4">
      <feDropShadow dx="0" dy="1" stdDeviation="2" flood-opacity="0.12"/>
    </filter>
  </defs>

  <!-- Background -->
  <rect width="1600" height="980" fill="#f4f6f7"/>

  <!-- Title -->
  <text x="800" y="38" text-anchor="middle" font-size="19" font-weight="700" fill="#1a2227">KB Compressed Graph — Clusters within Categories, Bridges across Channels</text>

  <!-- Legend -->
  <g transform="translate(20,54)">
    <rect x="0" y="0" width="320" height="100" rx="6" fill="#fff" stroke="#dde4e8"/>
    <text x="16" y="22" font-size="13" font-weight="700" fill="#1a2227">Legend</text>
    <rect x="16" y="34" width="14" height="14" rx="2" fill="#1a6a5e"/>
    <text x="36" y="46" font-size="12" fill="#3a4a53">Reception schriftlich (eye / reading)</text>
    <rect x="16" y="54" width="14" height="14" rx="2" fill="#2e6b8a"/>
    <text x="36" y="66" font-size="12" fill="#3a4a53">Reception mündlich (ear / listening)</text>
    <rect x="16" y="74" width="14" height="14" rx="2" fill="#c06014"/>
    <text x="36" y="86" font-size="12" fill="#3a4a53">Sprachmittlung mündlich (relay)</text>
  </g>

  <!-- === CATEGORY: Interaktion mündlich (Im) K001-041 === -->
  <g transform="translate(30,170)">
    <rect x="0" y="0" width="230" height="230" rx="8" fill="#fff3e0" stroke="#e8c87a" stroke-width="1.5" filter="url(#shadow)"/>
    <text x="12" y="24" font-size="13" font-weight="700" fill="#8b6914">Interaktion mündlich</text>
    <text x="12" y="42" font-size="11" fill="#9a7b2a">K001–041 · ear ↔ mouth</text>
    <rect x="12" y="56" width="206" height="34" rx="4" fill="#fef9e7" stroke="#e6d88a"/>
    <text x="24" y="74" font-size="11" fill="#6b5a00">greetings / introductions</text>
    <rect x="12" y="96" width="206" height="34" rx="4" fill="#fef9e7" stroke="#e6d88a"/>
    <text x="24" y="114" font-size="11" fill="#6b5a00">asking / giving info</text>
    <rect x="12" y="136" width="206" height="34" rx="4" fill="#fef9e7" stroke="#e6d88a"/>
    <text x="24" y="154" font-size="11" fill="#6b5a00">preferences / opinions</text>
    <rect x="12" y="176" width="206" height="34" rx="4" fill="#fef9e7" stroke="#e6d88a"/>
    <text x="24" y="194" font-size="11" fill="#6b5a00">requests / thanks</text>
    <text x="12" y="222" font-size="10" fill="#b8960f" font-style="italic">41 KBs · no reduction data</text>
  </g>

  <!-- === CATEGORY: Interaktion schriftlich (Is) K042-059 === -->
  <g transform="translate(30,420)">
    <rect x="0" y="0" width="230" height="140" rx="8" fill="#f3e5f5" stroke="#ce93d8" stroke-width="1.5" filter="url(#shadow)"/>
    <text x="12" y="24" font-size="13" font-weight="700" fill="#6a1b9a">Interaktion schriftlich</text>
    <text x="12" y="42" font-size="11" fill="#7b2a9a">K042–059 · hand ↔ eye</text>
    <rect x="12" y="56" width="206" height="34" rx="4" fill="#faf0fc" stroke="#e1bee7"/>
    <text x="24" y="74" font-size="11" fill="#4a2870">short written messages</text>
    <rect x="12" y="100" width="206" height="24" rx="4" fill="#faf0fc" stroke="#e1bee7"/>
    <text x="24" y="116" font-size="10" fill="#7b2a9a" font-style="italic">18 KBs · no reduction data</text>
  </g>

  <!-- === CATEGORY: Rezeption mündlich (Rm) K060-083 === -->
  <g transform="translate(310,170)">
    <rect x="0" y="0" width="250" height="230" rx="8" fill="#e3f2fd" stroke="#90caf9" stroke-width="1.5" filter="url(#shadow)"/>
    <text x="12" y="24" font-size="13" font-weight="700" fill="#2e6b8a">Rezeption mündlich</text>
    <text x="12" y="42" font-size="11" fill="#3a7a9a">K060–083 · ear / verschwindet</text>
    <rect x="12" y="56" width="226" height="34" rx="4" fill="#eaf2fa" stroke="#bbdefb"/>
    <text x="24" y="74" font-size="11" fill="#1e4a8a">understanding slow speech</text>
    <rect x="12" y="96" width="226" height="34" rx="4" fill="#eaf2fa" stroke="#bbdefb"/>
    <text x="24" y="114" font-size="11" fill="#1e4a8a">internat. words + pauses</text>
    <rect x="12" y="136" width="226" height="34" rx="4" fill="#eaf2fa" stroke="#bbdefb"/>
    <text x="24" y="154" font-size="11" fill="#1e4a8a">numbers / time spoken</text>
    <rect x="12" y="176" width="226" height="34" rx="4" fill="#eaf2fa" stroke="#bbdefb"/>
    <text x="24" y="194" font-size="11" fill="#1e4a8a">instructions / directions</text>
    <text x="12" y="222" font-size="10" fill="#5a8aaa" font-style="italic">24 KBs</text>
  </g>

  <!-- === CATEGORY: Rezeption schriftlich (Rs) K084-115 === -->
  <g transform="translate(310,420)">
    <rect x="0" y="0" width="300" height="380" rx="8" fill="#e0f2f1" stroke="#80cbc4" stroke-width="1.5" filter="url(#shadow)"/>
    <text x="12" y="24" font-size="13" font-weight="700" fill="#00695c">Rezeption schriftlich</text>
    <text x="12" y="42" font-size="11" fill="#1a6a5e">K084–115 · eye / stays</text>

    <!-- Cluster: basic reading -->
    <rect x="12" y="56" width="276" height="46" rx="4" fill="#e6f4f0" stroke="#a0d8cf"/>
    <text x="24" y="74" font-size="11" font-weight="600" fill="#0b5e55">basic reading: words / topic / re-read</text>
    <text x="24" y="90" font-size="10" fill="#2a6a5e">K084 · K085 · K086  (all ✍)</text>

    <!-- Cluster: numbers/tables -->
    <rect x="12" y="110" width="276" height="46" rx="4" fill="#e6f4f0" stroke="#a0d8cf"/>
    <text x="24" y="128" font-size="11" font-weight="600" fill="#0b5e55">numbers / time / price / tables</text>
    <text x="24" y="144" font-size="10" fill="#2a6a5e">K087 · K092 · K095  (K092 ✍)</text>

    <!-- Cluster: public signs -->
    <rect x="12" y="164" width="276" height="46" rx="4" fill="#e6f4f0" stroke="#a0d8cf"/>
    <text x="24" y="182" font-size="11" font-weight="600" fill="#0b5e55">public signs / labels / notices</text>
    <text x="24" y="198" font-size="10" fill="#2a6a5e">K100 · K101 · K102 · K103</text>

    <!-- Cluster: instructions -->
    <rect x="12" y="218" width="276" height="46" rx="4" fill="#e6f4f0" stroke="#a0d8cf"/>
    <text x="24" y="236" font-size="11" font-weight="600" fill="#0b5e55">short instructions with pictures</text>
    <text x="24" y="252" font-size="10" fill="#2a6a5e">K104  (✍ + seed)</text>

    <!-- Cluster: forms -->
    <rect x="12" y="272" width="276" height="46" rx="4" fill="#e6f4f0" stroke="#a0d8cf"/>
    <text x="24" y="290" font-size="11" font-weight="600" fill="#0b5e55">forms / questionnaires</text>
    <text x="24" y="306" font-size="10" fill="#2a6a5e">K105 · K106 · K107 · K108 · K109 · K110</text>

    <!-- Cluster: everyday texts -->
    <rect x="12" y="326" width="276" height="38" rx="4" fill="#e6f4f0" stroke="#a0d8cf"/>
    <text x="24" y="350" font-size="11" fill="#2a6a5e">K111–K115 · everyday texts, ads, notes</text>
  </g>

  <!-- === CATEGORY: Produktion mündlich (Pm) K116-132 === -->
  <g transform="translate(660,170)">
    <rect x="0" y="0" width="250" height="230" rx="8" fill="#fff8e1" stroke="#ffcc80" stroke-width="1.5" filter="url(#shadow)"/>
    <text x="12" y="24" font-size="13" font-weight="700" fill="#c06014">Produktion mündlich</text>
    <text x="12" y="42" font-size="11" fill="#d07024">K116–132 · mouth / disappears</text>
    <rect x="12" y="56" width="226" height="34" rx="4" fill="#fef6e8" stroke="#ffe0b2"/>
    <text x="24" y="74" font-size="11" fill="#5c2a00">self-description</text>
    <rect x="12" y="96" width="226" height="34" rx="4" fill="#fef6e8" stroke="#ffe0b2"/>
    <text x="24" y="114" font-size="11" fill="#5c2a00">daily life / hobbies</text>
    <rect x="12" y="136" width="226" height="34" rx="4" fill="#fef6e8" stroke="#ffe0b2"/>
    <text x="24" y="154" font-size="11" fill="#5c2a00">numbers / dates aloud</text>
    <rect x="12" y="176" width="226" height="34" rx="4" fill="#fef6e8" stroke="#ffe0b2"/>
    <text x="24" y="194" font-size="11" fill="#5c2a00">describe people / places</text>
    <text x="12" y="222" font-size="10" fill="#9a6a2a" font-style="italic">17 KBs</text>
  </g>

  <!-- === CATEGORY: Produktion schriftlich (Ps) K133-152 === -->
  <g transform="translate(660,420)">
    <rect x="0" y="0" width="250" height="230" rx="8" fill="#fce4ec" stroke="#f48fb1" stroke-width="1.5" filter="url(#shadow)"/>
    <text x="12" y="24" font-size="13" font-weight="700" fill="#800040">Produktion schriftlich</text>
    <text x="12" y="42" font-size="11" fill="#900050">K133–152 · hand/keyboard / stays</text>
    <rect x="12" y="56" width="226" height="34" rx="4" fill="#fef0f4" stroke="#f8bbd0"/>
    <text x="24" y="74" font-size="11" fill="#4a0030">copy words / phrases</text>
    <rect x="12" y="96" width="226" height="34" rx="4" fill="#fef0f4" stroke="#f8bbd0"/>
    <text x="24" y="114" font-size="11" fill="#4a0030">personal notes (time/place)</text>
    <rect x="12" y="136" width="226" height="34" rx="4" fill="#fef0f4" stroke="#f8bbd0"/>
    <text x="24" y="154" font-size="11" fill="#4a0030">bullet facts / data</text>
    <rect x="12" y="176" width="226" height="34" rx="4" fill="#fef0f4" stroke="#f8bbd0"/>
    <text x="24" y="194" font-size="11" fill="#4a0030">write about self/others</text>
    <text x="12" y="222" font-size="10" fill="#7a3050" font-style="italic">20 KBs</text>
  </g>

  <!-- === CATEGORY: Sprachmittlung mündlich (Sm) K153-176 === -->
  <g transform="translate(310,835)">
    <rect x="0" y="0" width="600" height="125" rx="8" fill="#fbe9e7" stroke="#ff8a65" stroke-width="1.5" filter="url(#shadow)"/>
    <text x="12" y="24" font-size="13" font-weight="700" fill="#d84315">Sprachmittlung mündlich</text>
    <text x="12" y="42" font-size="11" fill="#e85325">K153–176 · mouth after reading/hearing · relay output disappears</text>

    <!-- Cluster: DE→shared language -->
    <rect x="12" y="52" width="280" height="62" rx="4" fill="#fef2ee" stroke="#ffab91"/>
    <text x="24" y="70" font-size="11" font-weight="600" fill="#bf360c">DE → shared language</text>
    <text x="24" y="84" font-size="10" fill="#d84315">K153–166 · relay German info</text>
    <text x="24" y="98" font-size="10" fill="#d84315">to another person in common lang.  K163 ✍ (hand + seed)</text>

    <!-- Cluster: other→DE -->
    <rect x="310" y="52" width="280" height="62" rx="4" fill="#fef2ee" stroke="#ffab91"/>
    <text x="322" y="70" font-size="11" font-weight="600" fill="#bf360c">other language → DE</text>
    <text x="322" y="84" font-size="10" fill="#d84315">K167–176 · relay to German speaker</text>
    <text x="322" y="98" font-size="10" fill="#d84315">K173 · K174 · K175 · K176 ✍ (all hand)</text>
  </g>


  <!-- ====== BRIDGE EDGES ===== -->

  <!-- Edge 1: Rs numbers (K087/K092/K095) ↔ Rm numbers (K063/K064) — out right of numbers cluster -->
  <path d="M598,553 C640,530 640,470 500,473"
        fill="none" stroke="#c0392b" stroke-width="2" stroke-dasharray="8,4"
        marker-end="url(#arrow-red)"/>
  <rect x="560" y="480" width="170" height="16" rx="3" fill="#fff" stroke="#c0392b" stroke-width="0.5"/>
  <text x="566" y="491" font-size="10" fill="#c0392b">same content · channel shift</text>

  <!-- Edge 2: Rs signs (K100–103) → Sm relay (K173) — out bottom of public signs cluster -->
  <path d="M460,630 C460,740 450,830 450,860"
        fill="none" stroke="#0b5e55" stroke-width="2"
        marker-end="url(#arrow-green)"/>
  <rect x="410" y="730" width="140" height="15" rx="3" fill="#fff" stroke="#0b5e55" stroke-width="0.5"/>
  <text x="414" y="741" font-size="10" fill="#0b5e55">same carrier · op upgrade</text>

  <!-- Edge 3: Rs instructions (K104) → Sm relay (K163) — out bottom of instructions cluster -->
  <path d="M540,684 C540,770 510,810 480,860"
        fill="none" stroke="#0b5e55" stroke-width="2" stroke-dasharray="6,3"
        marker-end="url(#arrow-green)"/>
  <rect x="470" y="765" width="150" height="15" rx="3" fill="#fff" stroke="#0b5e55" stroke-width="0.5"/>
  <text x="474" y="776" font-size="10" fill="#0b5e55">comprehension → relay</text>

  <!-- Edge 4: Rs numbers ↔ Rs instructions via near_kbs — inside same box -->
  <line x1="530" y1="576" x2="530" y2="638" stroke="#555" stroke-width="1.5" stroke-dasharray="4,4"/>

  <!-- Edge 5: Rm instructions (K076) → Rs instructions (K104) — out bottom of Rm instructions, into Rs instructions left -->
  <path d="M435,396 C435,500 320,520 322,661"
        fill="none" stroke="#c0392b" stroke-width="2" stroke-dasharray="8,4"
        marker-end="url(#arrow-red)"/>
  <rect x="340" y="520" width="130" height="15" rx="3" fill="#fefefe" stroke="#c0392b" stroke-width="0.5"/>
  <text x="344" y="531" font-size="10" fill="#c0392b">ear → eye instructions</text>

  <!-- Edge 6: Rm numbers (K063) ↔ Rm instructions (K076) via near_kbs — inside same box -->
  <line x1="560" y1="323" x2="560" y2="363" stroke="#555" stroke-width="1.5" stroke-dasharray="4,4"/>

  <!-- Edge 7: Rs basic reading (K084) → Sm relay (K163) via related_kbs — out bottom -->
  <path d="M360,522 C360,740 420,790 440,860"
        fill="none" stroke="#0b5e55" stroke-width="1.5" stroke-dasharray="5,3"
        marker-end="url(#arrow-green)"/>

  <!-- Edge 8: Sm relay progression chain -->
  <path d="M580,895 C600,895 620,895 640,895"
        fill="none" stroke="#555" stroke-width="1" stroke-dasharray="3,3"/>
  <text x="588" y="888" font-size="9" fill="#666">K174</text>
  <text x="628" y="888" font-size="9" fill="#666">K175 → K176</text>

  <!-- Edge 9: Rs numbers (K092) → Sm (K163/K176) via related_kbs — out right of numbers -->
  <path d="M598,553 C660,553 680,700 660,860"
        fill="none" stroke="#0b5e55" stroke-width="1.2" stroke-dasharray="6,3"
        marker-end="url(#arrow-green)"/>
  <rect x="660" y="700" width="90" height="15" rx="3" fill="#fff" stroke="#0b5e55" stroke-width="0.5"/>
  <text x="664" y="711" font-size="10" fill="#0b5e55">tables → relay</text>

  <!-- Edge 10: Rs signs (K100–103) ↔ Ps write (K137) same Schild carrier — out right of public signs -->
  <path d="M598,607 C660,600 680,600 685,556"
        fill="none" stroke="#555" stroke-width="1.5" stroke-dasharray="4,4"/>
  <rect x="688" y="580" width="140" height="15" rx="3" fill="#fefefe" stroke="#888" stroke-width="0.5"/>
  <text x="692" y="591" font-size="10" fill="#888">Schild → aufschreiben</text>

</svg>
